<mxfile host="app.diagrams.net" agent="Mozilla/5.0 (X11; Linux x86_64) AppleWebKit/537.36 (KHTML, like Gecko) Chrome/127.0.0.0 Safari/537.36" version="24.7.7">
  <diagram id="C5RBs43oDa-KdzZeNtuy" name="Booking flow">
    <mxGraphModel dx="3000" dy="1589" grid="1" gridSize="10" guides="1" tooltips="1" connect="1" arrows="1" fold="1" page="1" pageScale="1" pageWidth="1169" pageHeight="827" math="0" shadow="0">
      <root>
        <mxCell id="WIyWlLk6GJQsqaUBKTNV-0" />
        <mxCell id="WIyWlLk6GJQsqaUBKTNV-1" parent="WIyWlLk6GJQsqaUBKTNV-0" />
        <mxCell id="4ncP-Ni7GxkVVqy7-JuS-60" value="" style="group" parent="WIyWlLk6GJQsqaUBKTNV-1" vertex="1" connectable="0">
          <mxGeometry x="10" y="385" width="1260" height="400" as="geometry" />
        </mxCell>
        <mxCell id="4ncP-Ni7GxkVVqy7-JuS-1" style="edgeStyle=none;curved=1;rounded=1;orthogonalLoop=1;jettySize=auto;html=1;fontSize=12;startSize=8;endSize=8;" parent="4ncP-Ni7GxkVVqy7-JuS-60" source="4ncP-Ni7GxkVVqy7-JuS-0" target="4ncP-Ni7GxkVVqy7-JuS-2" edge="1">
          <mxGeometry relative="1" as="geometry">
            <mxPoint x="140" y="175" as="targetPoint" />
          </mxGeometry>
        </mxCell>
        <mxCell id="4ncP-Ni7GxkVVqy7-JuS-4" value="click" style="edgeLabel;html=1;align=center;verticalAlign=middle;resizable=0;points=[];fontSize=12;rounded=1;" parent="4ncP-Ni7GxkVVqy7-JuS-1" vertex="1" connectable="0">
          <mxGeometry x="-0.3442" y="1" relative="1" as="geometry">
            <mxPoint x="7" y="-14" as="offset" />
          </mxGeometry>
        </mxCell>
        <mxCell id="4ncP-Ni7GxkVVqy7-JuS-0" value="Pasager" style="shape=umlActor;verticalLabelPosition=bottom;verticalAlign=top;html=1;outlineConnect=0;rounded=1;" parent="4ncP-Ni7GxkVVqy7-JuS-60" vertex="1">
          <mxGeometry x="20" y="145" width="30" height="60" as="geometry" />
        </mxCell>
        <mxCell id="4ncP-Ni7GxkVVqy7-JuS-6" value="" style="edgeStyle=none;curved=1;rounded=1;orthogonalLoop=1;jettySize=auto;html=1;fontSize=12;startSize=8;endSize=8;" parent="4ncP-Ni7GxkVVqy7-JuS-60" source="4ncP-Ni7GxkVVqy7-JuS-2" target="4ncP-Ni7GxkVVqy7-JuS-10" edge="1">
          <mxGeometry relative="1" as="geometry" />
        </mxCell>
        <mxCell id="4ncP-Ni7GxkVVqy7-JuS-2" value="Rezerva" style="html=1;shadow=0;dashed=0;shape=mxgraph.bootstrap.rrect;rSize=5;strokeColor=#0085FC;strokeWidth=1;fillColor=default;fontColor=#0085FC;whiteSpace=wrap;align=center;verticalAlign=middle;spacingLeft=0;fontStyle=0;fontSize=16;spacing=5;rounded=1;gradientColor=none;" parent="4ncP-Ni7GxkVVqy7-JuS-60" vertex="1">
          <mxGeometry x="120" y="155" width="80" height="40" as="geometry" />
        </mxCell>
        <mxCell id="4ncP-Ni7GxkVVqy7-JuS-7" style="edgeStyle=none;curved=1;rounded=1;orthogonalLoop=1;jettySize=auto;html=1;exitX=0;exitY=1;exitDx=0;exitDy=0;fontSize=12;startSize=8;endSize=8;" parent="4ncP-Ni7GxkVVqy7-JuS-60" edge="1">
          <mxGeometry relative="1" as="geometry">
            <mxPoint x="590" y="155" as="sourcePoint" />
            <mxPoint x="590" y="155" as="targetPoint" />
          </mxGeometry>
        </mxCell>
        <mxCell id="4ncP-Ni7GxkVVqy7-JuS-21" value="" style="edgeStyle=none;curved=0;rounded=0;orthogonalLoop=1;jettySize=auto;html=1;fontSize=12;startSize=8;endSize=8;entryX=0;entryY=0.5;entryDx=0;entryDy=0;" parent="4ncP-Ni7GxkVVqy7-JuS-60" source="4ncP-Ni7GxkVVqy7-JuS-10" target="4ncP-Ni7GxkVVqy7-JuS-22" edge="1">
          <mxGeometry relative="1" as="geometry">
            <mxPoint x="270" y="174.54999999999995" as="sourcePoint" />
            <mxPoint x="361.81818181818176" y="174.54999999999995" as="targetPoint" />
          </mxGeometry>
        </mxCell>
        <mxCell id="4ncP-Ni7GxkVVqy7-JuS-29" value="Cerere" style="edgeLabel;html=1;align=center;verticalAlign=middle;resizable=0;points=[];fontSize=12;rounded=1;" parent="4ncP-Ni7GxkVVqy7-JuS-21" vertex="1" connectable="0">
          <mxGeometry x="-0.0136" y="-2" relative="1" as="geometry">
            <mxPoint y="-2" as="offset" />
          </mxGeometry>
        </mxCell>
        <mxCell id="4ncP-Ni7GxkVVqy7-JuS-10" value="API" style="html=1;points=[[0,0,0,0,5],[0,1,0,0,-5],[1,0,0,0,5],[1,1,0,0,-5]];perimeter=orthogonalPerimeter;outlineConnect=0;targetShapes=umlLifeline;portConstraint=eastwest;newEdgeStyle={&quot;curved&quot;:0,&quot;rounded&quot;:0};rounded=1;flipV=0;direction=west;horizontal=0;" parent="4ncP-Ni7GxkVVqy7-JuS-60" vertex="1">
          <mxGeometry x="260" y="100" width="20" height="280" as="geometry" />
        </mxCell>
        <mxCell id="4ncP-Ni7GxkVVqy7-JuS-14" style="edgeStyle=none;curved=0;rounded=0;orthogonalLoop=1;jettySize=auto;html=1;entryX=0;entryY=0.5;entryDx=0;entryDy=0;fontSize=12;startSize=8;endSize=8;exitX=1;exitY=0.5;exitDx=0;exitDy=0;" parent="4ncP-Ni7GxkVVqy7-JuS-60" source="4ncP-Ni7GxkVVqy7-JuS-22" target="4ncP-Ni7GxkVVqy7-JuS-15" edge="1">
          <mxGeometry relative="1" as="geometry">
            <mxPoint x="306" y="69.99999999999966" as="sourcePoint" />
            <mxPoint x="406.08000000000015" y="69.99999999999966" as="targetPoint" />
          </mxGeometry>
        </mxCell>
        <mxCell id="4ncP-Ni7GxkVVqy7-JuS-23" value="Da" style="edgeLabel;html=1;align=center;verticalAlign=middle;resizable=0;points=[];fontSize=12;rounded=1;" parent="4ncP-Ni7GxkVVqy7-JuS-14" vertex="1" connectable="0">
          <mxGeometry x="-0.2451" relative="1" as="geometry">
            <mxPoint as="offset" />
          </mxGeometry>
        </mxCell>
        <mxCell id="4ncP-Ni7GxkVVqy7-JuS-19" value="" style="edgeStyle=none;curved=1;rounded=1;orthogonalLoop=1;jettySize=auto;html=1;fontSize=12;startSize=8;endSize=8;entryX=0;entryY=0.5;entryDx=0;entryDy=0;" parent="4ncP-Ni7GxkVVqy7-JuS-60" source="4ncP-Ni7GxkVVqy7-JuS-15" target="4ncP-Ni7GxkVVqy7-JuS-18" edge="1">
          <mxGeometry relative="1" as="geometry">
            <mxPoint x="740" y="140" as="targetPoint" />
          </mxGeometry>
        </mxCell>
        <mxCell id="4ncP-Ni7GxkVVqy7-JuS-15" value="Creaza comanda&lt;br&gt;[OrderModel]" style="rounded=1;whiteSpace=wrap;html=1;fontSize=12;glass=0;strokeWidth=1;shadow=0;" parent="4ncP-Ni7GxkVVqy7-JuS-60" vertex="1">
          <mxGeometry x="560" y="110" width="120" height="60" as="geometry" />
        </mxCell>
        <mxCell id="4ncP-Ni7GxkVVqy7-JuS-42" value="" style="edgeStyle=none;curved=1;rounded=1;orthogonalLoop=1;jettySize=auto;html=1;fontSize=12;startSize=8;endSize=8;" parent="4ncP-Ni7GxkVVqy7-JuS-60" source="4ncP-Ni7GxkVVqy7-JuS-18" target="4ncP-Ni7GxkVVqy7-JuS-41" edge="1">
          <mxGeometry relative="1" as="geometry" />
        </mxCell>
        <mxCell id="tSpMMrxzUmrOxkiWCc4J-1" style="edgeStyle=none;curved=1;rounded=0;orthogonalLoop=1;jettySize=auto;html=1;exitX=1;exitY=0.5;exitDx=0;exitDy=0;fontSize=12;startSize=8;endSize=8;" parent="4ncP-Ni7GxkVVqy7-JuS-60" source="4ncP-Ni7GxkVVqy7-JuS-18" edge="1">
          <mxGeometry relative="1" as="geometry">
            <mxPoint x="920" y="70" as="targetPoint" />
          </mxGeometry>
        </mxCell>
        <mxCell id="4ncP-Ni7GxkVVqy7-JuS-18" value="Creaza rezervarile&lt;br&gt;[BookingModel]" style="whiteSpace=wrap;html=1;rounded=1;glass=0;strokeWidth=1;shadow=0;" parent="4ncP-Ni7GxkVVqy7-JuS-60" vertex="1">
          <mxGeometry x="745" y="110" width="120" height="60" as="geometry" />
        </mxCell>
        <mxCell id="4ncP-Ni7GxkVVqy7-JuS-25" value="" style="edgeStyle=none;curved=1;rounded=1;orthogonalLoop=1;jettySize=auto;html=1;fontSize=12;startSize=8;endSize=8;" parent="4ncP-Ni7GxkVVqy7-JuS-60" source="4ncP-Ni7GxkVVqy7-JuS-22" target="4ncP-Ni7GxkVVqy7-JuS-24" edge="1">
          <mxGeometry relative="1" as="geometry" />
        </mxCell>
        <mxCell id="4ncP-Ni7GxkVVqy7-JuS-26" value="Nu" style="edgeLabel;html=1;align=center;verticalAlign=middle;resizable=0;points=[];fontSize=12;rounded=1;" parent="4ncP-Ni7GxkVVqy7-JuS-25" vertex="1" connectable="0">
          <mxGeometry x="-0.2409" y="2" relative="1" as="geometry">
            <mxPoint as="offset" />
          </mxGeometry>
        </mxCell>
        <mxCell id="4ncP-Ni7GxkVVqy7-JuS-22" value="Datele sunt valide?" style="rhombus;whiteSpace=wrap;html=1;shadow=0;fontFamily=Helvetica;fontSize=12;align=center;strokeWidth=1;spacing=6;spacingTop=-4;rounded=1;" parent="4ncP-Ni7GxkVVqy7-JuS-60" vertex="1">
          <mxGeometry x="400" y="100" width="100" height="80" as="geometry" />
        </mxCell>
        <mxCell id="4ncP-Ni7GxkVVqy7-JuS-27" value="" style="edgeStyle=none;curved=1;rounded=1;orthogonalLoop=1;jettySize=auto;html=1;fontSize=12;startSize=8;endSize=8;dashed=1;" parent="4ncP-Ni7GxkVVqy7-JuS-60" source="4ncP-Ni7GxkVVqy7-JuS-24" target="4ncP-Ni7GxkVVqy7-JuS-10" edge="1">
          <mxGeometry relative="1" as="geometry" />
        </mxCell>
        <mxCell id="4ncP-Ni7GxkVVqy7-JuS-28" value="Raspuns" style="edgeLabel;html=1;align=center;verticalAlign=middle;resizable=0;points=[];fontSize=12;rounded=1;" parent="4ncP-Ni7GxkVVqy7-JuS-27" vertex="1" connectable="0">
          <mxGeometry x="0.0885" y="1" relative="1" as="geometry">
            <mxPoint as="offset" />
          </mxGeometry>
        </mxCell>
        <mxCell id="4ncP-Ni7GxkVVqy7-JuS-24" value="Pregatire mesaj de EROARE" style="whiteSpace=wrap;html=1;shadow=0;strokeWidth=1;spacing=6;spacingTop=-4;rounded=1;" parent="4ncP-Ni7GxkVVqy7-JuS-60" vertex="1">
          <mxGeometry x="390" y="220" width="120" height="40" as="geometry" />
        </mxCell>
        <mxCell id="4ncP-Ni7GxkVVqy7-JuS-32" value="Eroare" style="html=1;shadow=0;dashed=0;shape=mxgraph.bootstrap.rrect;rSize=5;strokeColor=#F4C5CB;strokeWidth=1;fillColor=#F8D6DA;fontColor=#711623;whiteSpace=wrap;align=left;verticalAlign=middle;spacingLeft=10;rounded=1;" parent="4ncP-Ni7GxkVVqy7-JuS-60" vertex="1">
          <mxGeometry x="30" y="280" width="170" height="40" as="geometry" />
        </mxCell>
        <mxCell id="4ncP-Ni7GxkVVqy7-JuS-33" style="edgeStyle=none;curved=0;rounded=0;orthogonalLoop=1;jettySize=auto;html=1;entryX=0.998;entryY=0.446;entryDx=0;entryDy=0;entryPerimeter=0;fontSize=12;startSize=8;endSize=8;" parent="4ncP-Ni7GxkVVqy7-JuS-60" target="4ncP-Ni7GxkVVqy7-JuS-32" edge="1">
          <mxGeometry relative="1" as="geometry">
            <mxPoint x="260" y="239.24" as="sourcePoint" />
            <mxPoint x="195.91999999999996" y="240.76000000000045" as="targetPoint" />
            <Array as="points" />
          </mxGeometry>
        </mxCell>
        <mxCell id="4ncP-Ni7GxkVVqy7-JuS-35" value="Success" style="html=1;shadow=0;dashed=0;shape=mxgraph.bootstrap.rrect;rSize=5;strokeColor=#B8DCFE;strokeWidth=1;fillColor=#CCE7FE;fontColor=#004583;whiteSpace=wrap;align=left;verticalAlign=middle;spacingLeft=10;rounded=1;" parent="4ncP-Ni7GxkVVqy7-JuS-60" vertex="1">
          <mxGeometry x="30" y="340" width="170" height="40" as="geometry" />
        </mxCell>
        <mxCell id="4ncP-Ni7GxkVVqy7-JuS-39" style="edgeStyle=none;curved=0;rounded=0;orthogonalLoop=1;jettySize=auto;html=1;entryX=1.007;entryY=0.554;entryDx=0;entryDy=0;entryPerimeter=0;fontSize=12;startSize=8;endSize=8;" parent="4ncP-Ni7GxkVVqy7-JuS-60" target="4ncP-Ni7GxkVVqy7-JuS-35" edge="1">
          <mxGeometry relative="1" as="geometry">
            <mxPoint x="260" y="299.64" as="sourcePoint" />
            <mxPoint x="197.95999999999992" y="299.64" as="targetPoint" />
          </mxGeometry>
        </mxCell>
        <mxCell id="4ncP-Ni7GxkVVqy7-JuS-44" value="" style="edgeStyle=none;curved=1;rounded=1;orthogonalLoop=1;jettySize=auto;html=1;fontSize=12;startSize=8;endSize=8;" parent="4ncP-Ni7GxkVVqy7-JuS-60" source="4ncP-Ni7GxkVVqy7-JuS-41" target="4ncP-Ni7GxkVVqy7-JuS-43" edge="1">
          <mxGeometry relative="1" as="geometry" />
        </mxCell>
        <mxCell id="4ncP-Ni7GxkVVqy7-JuS-41" value="Email&lt;div&gt;Trimite confirmarea rezervarii pasagerului&lt;/div&gt;" style="whiteSpace=wrap;html=1;rounded=1;glass=0;strokeWidth=1;shadow=0;" parent="4ncP-Ni7GxkVVqy7-JuS-60" vertex="1">
          <mxGeometry x="920" y="110" width="130" height="60" as="geometry" />
        </mxCell>
        <mxCell id="4ncP-Ni7GxkVVqy7-JuS-46" value="" style="edgeStyle=none;curved=0;rounded=0;orthogonalLoop=1;jettySize=auto;html=1;fontSize=12;startSize=8;endSize=8;entryX=1;entryY=0.5;entryDx=0;entryDy=0;" parent="4ncP-Ni7GxkVVqy7-JuS-60" source="4ncP-Ni7GxkVVqy7-JuS-43" target="4ncP-Ni7GxkVVqy7-JuS-24" edge="1">
          <mxGeometry relative="1" as="geometry">
            <mxPoint x="1150" y="310" as="targetPoint" />
            <Array as="points">
              <mxPoint x="1150" y="240" />
            </Array>
          </mxGeometry>
        </mxCell>
        <mxCell id="4ncP-Ni7GxkVVqy7-JuS-47" value="Nu" style="edgeLabel;html=1;align=center;verticalAlign=middle;resizable=0;points=[];fontSize=12;rounded=1;" parent="4ncP-Ni7GxkVVqy7-JuS-46" vertex="1" connectable="0">
          <mxGeometry x="0.1068" y="-1" relative="1" as="geometry">
            <mxPoint as="offset" />
          </mxGeometry>
        </mxCell>
        <mxCell id="4ncP-Ni7GxkVVqy7-JuS-49" style="edgeStyle=none;curved=0;rounded=0;orthogonalLoop=1;jettySize=auto;html=1;fontSize=12;startSize=8;endSize=8;entryX=1;entryY=0.5;entryDx=0;entryDy=0;exitX=1;exitY=0.5;exitDx=0;exitDy=0;" parent="4ncP-Ni7GxkVVqy7-JuS-60" source="4ncP-Ni7GxkVVqy7-JuS-43" target="4ncP-Ni7GxkVVqy7-JuS-48" edge="1">
          <mxGeometry relative="1" as="geometry">
            <Array as="points">
              <mxPoint x="1190" y="300" />
            </Array>
          </mxGeometry>
        </mxCell>
        <mxCell id="4ncP-Ni7GxkVVqy7-JuS-50" value="Da" style="edgeLabel;html=1;align=center;verticalAlign=middle;resizable=0;points=[];fontSize=12;rounded=1;" parent="4ncP-Ni7GxkVVqy7-JuS-49" vertex="1" connectable="0">
          <mxGeometry x="0.08" relative="1" as="geometry">
            <mxPoint as="offset" />
          </mxGeometry>
        </mxCell>
        <mxCell id="4ncP-Ni7GxkVVqy7-JuS-43" value="Proces finalizat?" style="rhombus;whiteSpace=wrap;html=1;rounded=1;glass=0;strokeWidth=1;shadow=0;" parent="4ncP-Ni7GxkVVqy7-JuS-60" vertex="1">
          <mxGeometry x="1110" y="100" width="80" height="80" as="geometry" />
        </mxCell>
        <mxCell id="4ncP-Ni7GxkVVqy7-JuS-51" style="edgeStyle=none;curved=1;rounded=1;orthogonalLoop=1;jettySize=auto;html=1;fontSize=12;startSize=8;endSize=8;dashed=1;" parent="4ncP-Ni7GxkVVqy7-JuS-60" source="4ncP-Ni7GxkVVqy7-JuS-48" target="4ncP-Ni7GxkVVqy7-JuS-10" edge="1">
          <mxGeometry relative="1" as="geometry" />
        </mxCell>
        <mxCell id="4ncP-Ni7GxkVVqy7-JuS-52" value="Raspuns" style="edgeLabel;html=1;align=center;verticalAlign=middle;resizable=0;points=[];fontSize=12;rounded=1;" parent="4ncP-Ni7GxkVVqy7-JuS-51" vertex="1" connectable="0">
          <mxGeometry x="0.0727" y="2" relative="1" as="geometry">
            <mxPoint as="offset" />
          </mxGeometry>
        </mxCell>
        <mxCell id="4ncP-Ni7GxkVVqy7-JuS-48" value="Pregatire mesaj de SUCCES" style="whiteSpace=wrap;html=1;shadow=0;strokeWidth=1;spacing=6;spacingTop=-4;rounded=1;" parent="4ncP-Ni7GxkVVqy7-JuS-60" vertex="1">
          <mxGeometry x="390" y="280" width="120" height="40" as="geometry" />
        </mxCell>
        <mxCell id="4ncP-Ni7GxkVVqy7-JuS-54" value="OrderModel" style="swimlane;fontStyle=1;align=center;verticalAlign=top;childLayout=stackLayout;horizontal=1;startSize=26;horizontalStack=0;resizeParent=1;resizeParentMax=0;resizeLast=0;collapsible=1;marginBottom=0;whiteSpace=wrap;html=1;rounded=1;sketch=1;curveFitting=1;jiggle=2;" parent="4ncP-Ni7GxkVVqy7-JuS-60" vertex="1">
          <mxGeometry x="550" y="30" width="150" height="70" as="geometry">
            <mxRectangle x="550" y="420" width="100" height="30" as="alternateBounds" />
          </mxGeometry>
        </mxCell>
        <mxCell id="4ncP-Ni7GxkVVqy7-JuS-55" value="+ status: pending&lt;div&gt;+ type: unPayedBooking&lt;/div&gt;" style="text;strokeColor=none;fillColor=none;align=left;verticalAlign=top;spacingLeft=4;spacingRight=4;overflow=hidden;rotatable=0;points=[[0,0.5],[1,0.5]];portConstraint=eastwest;whiteSpace=wrap;html=1;" parent="4ncP-Ni7GxkVVqy7-JuS-54" vertex="1">
          <mxGeometry y="26" width="150" height="44" as="geometry" />
        </mxCell>
        <mxCell id="4ncP-Ni7GxkVVqy7-JuS-58" value="BookingModel" style="swimlane;fontStyle=1;align=center;verticalAlign=top;childLayout=stackLayout;horizontal=1;startSize=26;horizontalStack=0;resizeParent=1;resizeParentMax=0;resizeLast=0;collapsible=1;marginBottom=0;whiteSpace=wrap;html=1;rounded=1;sketch=1;curveFitting=1;jiggle=2;" parent="4ncP-Ni7GxkVVqy7-JuS-60" vertex="1">
          <mxGeometry x="720" y="40" width="170" height="52" as="geometry">
            <mxRectangle x="550" y="420" width="100" height="30" as="alternateBounds" />
          </mxGeometry>
        </mxCell>
        <mxCell id="4ncP-Ni7GxkVVqy7-JuS-59" value="+ paymentCompleted: false" style="text;strokeColor=none;fillColor=none;align=left;verticalAlign=top;spacingLeft=4;spacingRight=4;overflow=hidden;rotatable=0;points=[[0,0.5],[1,0.5]];portConstraint=eastwest;whiteSpace=wrap;html=1;" parent="4ncP-Ni7GxkVVqy7-JuS-58" vertex="1">
          <mxGeometry y="26" width="170" height="26" as="geometry" />
        </mxCell>
        <mxCell id="tSpMMrxzUmrOxkiWCc4J-2" style="edgeStyle=none;curved=1;rounded=0;orthogonalLoop=1;jettySize=auto;html=1;entryX=0;entryY=0.5;entryDx=0;entryDy=0;fontSize=12;startSize=8;endSize=8;exitX=1;exitY=0.5;exitDx=0;exitDy=0;" parent="4ncP-Ni7GxkVVqy7-JuS-60" source="tSpMMrxzUmrOxkiWCc4J-0" target="4ncP-Ni7GxkVVqy7-JuS-43" edge="1">
          <mxGeometry relative="1" as="geometry" />
        </mxCell>
        <mxCell id="tSpMMrxzUmrOxkiWCc4J-0" value="Email&lt;div&gt;Trimite link de plata&lt;/div&gt;&lt;div&gt;la 5min&lt;/div&gt;" style="whiteSpace=wrap;html=1;rounded=1;glass=0;strokeWidth=1;shadow=0;" parent="4ncP-Ni7GxkVVqy7-JuS-60" vertex="1">
          <mxGeometry x="920" y="40" width="130" height="60" as="geometry" />
        </mxCell>
        <mxCell id="tSpMMrxzUmrOxkiWCc4J-52" value="booking/create" style="text;strokeColor=none;fillColor=none;html=1;align=center;verticalAlign=middle;whiteSpace=wrap;rounded=0;fontSize=16;" parent="4ncP-Ni7GxkVVqy7-JuS-60" vertex="1">
          <mxGeometry x="310" y="100" width="60" height="30" as="geometry" />
        </mxCell>
        <mxCell id="tSpMMrxzUmrOxkiWCc4J-3" value="" style="group;dashed=1;" parent="WIyWlLk6GJQsqaUBKTNV-1" vertex="1" connectable="0">
          <mxGeometry x="20" y="840" width="1260" height="910" as="geometry" />
        </mxCell>
        <mxCell id="tSpMMrxzUmrOxkiWCc4J-4" style="edgeStyle=none;curved=1;rounded=1;orthogonalLoop=1;jettySize=auto;html=1;fontSize=12;startSize=8;endSize=8;" parent="tSpMMrxzUmrOxkiWCc4J-3" source="tSpMMrxzUmrOxkiWCc4J-6" edge="1">
          <mxGeometry relative="1" as="geometry">
            <mxPoint x="120" y="214.375" as="targetPoint" />
          </mxGeometry>
        </mxCell>
        <mxCell id="tSpMMrxzUmrOxkiWCc4J-5" value="click" style="edgeLabel;html=1;align=center;verticalAlign=middle;resizable=0;points=[];fontSize=12;rounded=1;" parent="tSpMMrxzUmrOxkiWCc4J-4" vertex="1" connectable="0">
          <mxGeometry x="-0.3442" y="1" relative="1" as="geometry">
            <mxPoint x="7" y="-14" as="offset" />
          </mxGeometry>
        </mxCell>
        <mxCell id="tSpMMrxzUmrOxkiWCc4J-6" value="Pasager" style="shape=umlActor;verticalLabelPosition=bottom;verticalAlign=top;html=1;outlineConnect=0;rounded=1;" parent="tSpMMrxzUmrOxkiWCc4J-3" vertex="1">
          <mxGeometry x="20" y="177.625" width="30" height="73.5" as="geometry" />
        </mxCell>
        <mxCell id="tSpMMrxzUmrOxkiWCc4J-7" value="" style="edgeStyle=none;curved=1;rounded=1;orthogonalLoop=1;jettySize=auto;html=1;fontSize=12;startSize=8;endSize=8;" parent="tSpMMrxzUmrOxkiWCc4J-3" target="tSpMMrxzUmrOxkiWCc4J-13" edge="1">
          <mxGeometry relative="1" as="geometry">
            <mxPoint x="200.0000000000001" y="214.375" as="sourcePoint" />
          </mxGeometry>
        </mxCell>
        <mxCell id="tSpMMrxzUmrOxkiWCc4J-9" style="edgeStyle=none;curved=1;rounded=1;orthogonalLoop=1;jettySize=auto;html=1;exitX=0;exitY=1;exitDx=0;exitDy=0;fontSize=12;startSize=8;endSize=8;" parent="tSpMMrxzUmrOxkiWCc4J-3" edge="1">
          <mxGeometry relative="1" as="geometry">
            <mxPoint x="590" y="189.875" as="sourcePoint" />
            <mxPoint x="590" y="189.875" as="targetPoint" />
          </mxGeometry>
        </mxCell>
        <mxCell id="tSpMMrxzUmrOxkiWCc4J-10" value="&lt;span style=&quot;color: rgb(108, 118, 125); font-size: 14px;&quot;&gt;Fig. 2&lt;/span&gt;&lt;div&gt;&lt;span style=&quot;color: rgb(108, 118, 125); font-size: 14px;&quot;&gt;Descriere proces de cumparare blilet &lt;/span&gt;&lt;span style=&quot;font-size: 14px;&quot;&gt;&lt;font color=&quot;#00cc66&quot;&gt;ONLINE&lt;/font&gt;&lt;/span&gt;&lt;/div&gt;" style="shape=umlFrame;whiteSpace=wrap;html=1;pointerEvents=0;rounded=1;width=180;height=55;align=left;" parent="tSpMMrxzUmrOxkiWCc4J-3" vertex="1">
          <mxGeometry width="1260" height="910" as="geometry" />
        </mxCell>
        <mxCell id="tSpMMrxzUmrOxkiWCc4J-11" value="" style="edgeStyle=none;curved=0;rounded=0;orthogonalLoop=1;jettySize=auto;html=1;fontSize=12;startSize=8;endSize=8;entryX=0;entryY=0.5;entryDx=0;entryDy=0;" parent="tSpMMrxzUmrOxkiWCc4J-3" source="tSpMMrxzUmrOxkiWCc4J-13" target="tSpMMrxzUmrOxkiWCc4J-23" edge="1">
          <mxGeometry relative="1" as="geometry">
            <mxPoint x="270" y="213.82374999999993" as="sourcePoint" />
            <mxPoint x="361.81818181818176" y="213.82374999999993" as="targetPoint" />
          </mxGeometry>
        </mxCell>
        <mxCell id="tSpMMrxzUmrOxkiWCc4J-12" value="Cerere" style="edgeLabel;html=1;align=center;verticalAlign=middle;resizable=0;points=[];fontSize=12;rounded=1;" parent="tSpMMrxzUmrOxkiWCc4J-11" vertex="1" connectable="0">
          <mxGeometry x="-0.0136" y="-2" relative="1" as="geometry">
            <mxPoint y="-2" as="offset" />
          </mxGeometry>
        </mxCell>
        <mxCell id="XpkiJZqz_F2u8kBpc9Rh-48" style="edgeStyle=orthogonalEdgeStyle;rounded=0;orthogonalLoop=1;jettySize=auto;html=1;curved=0;" edge="1" parent="tSpMMrxzUmrOxkiWCc4J-3" source="tSpMMrxzUmrOxkiWCc4J-13">
          <mxGeometry relative="1" as="geometry">
            <mxPoint x="390" y="490" as="targetPoint" />
            <Array as="points">
              <mxPoint x="320" y="490" />
              <mxPoint x="320" y="490" />
            </Array>
          </mxGeometry>
        </mxCell>
        <mxCell id="XpkiJZqz_F2u8kBpc9Rh-49" value="Cerere" style="edgeLabel;html=1;align=center;verticalAlign=middle;resizable=0;points=[];" vertex="1" connectable="0" parent="XpkiJZqz_F2u8kBpc9Rh-48">
          <mxGeometry x="-0.16" y="-4" relative="1" as="geometry">
            <mxPoint as="offset" />
          </mxGeometry>
        </mxCell>
        <mxCell id="XpkiJZqz_F2u8kBpc9Rh-196" style="rounded=0;orthogonalLoop=1;jettySize=auto;html=1;entryX=1.005;entryY=0.589;entryDx=0;entryDy=0;entryPerimeter=0;" edge="1" parent="tSpMMrxzUmrOxkiWCc4J-3" target="XpkiJZqz_F2u8kBpc9Rh-273">
          <mxGeometry relative="1" as="geometry">
            <mxPoint x="160" y="731" as="targetPoint" />
            <mxPoint x="260" y="730.9999999999998" as="sourcePoint" />
          </mxGeometry>
        </mxCell>
        <mxCell id="tSpMMrxzUmrOxkiWCc4J-13" value="API Express" style="html=1;points=[[0,0,0,0,5],[0,1,0,0,-5],[1,0,0,0,5],[1,1,0,0,-5]];perimeter=orthogonalPerimeter;outlineConnect=0;targetShapes=umlLifeline;portConstraint=eastwest;newEdgeStyle={&quot;curved&quot;:0,&quot;rounded&quot;:0};rounded=1;flipV=0;direction=west;horizontal=0;" parent="tSpMMrxzUmrOxkiWCc4J-3" vertex="1">
          <mxGeometry x="260" y="122.5" width="20" height="667.5" as="geometry" />
        </mxCell>
        <mxCell id="tSpMMrxzUmrOxkiWCc4J-14" style="edgeStyle=none;curved=0;rounded=0;orthogonalLoop=1;jettySize=auto;html=1;entryX=0;entryY=0.5;entryDx=0;entryDy=0;fontSize=12;startSize=8;endSize=8;exitX=1;exitY=0.5;exitDx=0;exitDy=0;" parent="tSpMMrxzUmrOxkiWCc4J-3" source="tSpMMrxzUmrOxkiWCc4J-23" target="tSpMMrxzUmrOxkiWCc4J-17" edge="1">
          <mxGeometry relative="1" as="geometry">
            <mxPoint x="306" y="85.74999999999957" as="sourcePoint" />
            <mxPoint x="406.08000000000015" y="85.74999999999957" as="targetPoint" />
          </mxGeometry>
        </mxCell>
        <mxCell id="tSpMMrxzUmrOxkiWCc4J-15" value="Da" style="edgeLabel;html=1;align=center;verticalAlign=middle;resizable=0;points=[];fontSize=12;rounded=1;" parent="tSpMMrxzUmrOxkiWCc4J-14" vertex="1" connectable="0">
          <mxGeometry x="-0.2451" relative="1" as="geometry">
            <mxPoint as="offset" />
          </mxGeometry>
        </mxCell>
        <mxCell id="tSpMMrxzUmrOxkiWCc4J-16" value="" style="edgeStyle=none;curved=1;rounded=1;orthogonalLoop=1;jettySize=auto;html=1;fontSize=12;startSize=8;endSize=8;entryX=0;entryY=0.5;entryDx=0;entryDy=0;" parent="tSpMMrxzUmrOxkiWCc4J-3" source="tSpMMrxzUmrOxkiWCc4J-17" target="tSpMMrxzUmrOxkiWCc4J-20" edge="1">
          <mxGeometry relative="1" as="geometry">
            <mxPoint x="740" y="171.5" as="targetPoint" />
          </mxGeometry>
        </mxCell>
        <mxCell id="tSpMMrxzUmrOxkiWCc4J-17" value="Creaza comanda&lt;br&gt;[OrderModel]" style="rounded=1;whiteSpace=wrap;html=1;fontSize=12;glass=0;strokeWidth=1;shadow=0;" parent="tSpMMrxzUmrOxkiWCc4J-3" vertex="1">
          <mxGeometry x="560" y="134.75" width="120" height="73.5" as="geometry" />
        </mxCell>
        <mxCell id="tSpMMrxzUmrOxkiWCc4J-93" value="" style="edgeStyle=none;curved=1;rounded=0;orthogonalLoop=1;jettySize=auto;html=1;fontSize=12;startSize=8;endSize=8;entryX=0;entryY=0.5;entryDx=0;entryDy=0;" parent="tSpMMrxzUmrOxkiWCc4J-3" source="tSpMMrxzUmrOxkiWCc4J-20" target="tSpMMrxzUmrOxkiWCc4J-37" edge="1">
          <mxGeometry relative="1" as="geometry">
            <mxPoint x="920" y="171.5" as="targetPoint" />
          </mxGeometry>
        </mxCell>
        <mxCell id="tSpMMrxzUmrOxkiWCc4J-20" value="Creaza rezervarile&lt;br&gt;[BookingModel]" style="whiteSpace=wrap;html=1;rounded=1;glass=0;strokeWidth=1;shadow=0;" parent="tSpMMrxzUmrOxkiWCc4J-3" vertex="1">
          <mxGeometry x="745" y="134.75" width="125" height="73.5" as="geometry" />
        </mxCell>
        <mxCell id="tSpMMrxzUmrOxkiWCc4J-21" value="" style="edgeStyle=none;curved=1;rounded=1;orthogonalLoop=1;jettySize=auto;html=1;fontSize=12;startSize=8;endSize=8;" parent="tSpMMrxzUmrOxkiWCc4J-3" source="tSpMMrxzUmrOxkiWCc4J-23" target="tSpMMrxzUmrOxkiWCc4J-26" edge="1">
          <mxGeometry relative="1" as="geometry" />
        </mxCell>
        <mxCell id="tSpMMrxzUmrOxkiWCc4J-22" value="Nu" style="edgeLabel;html=1;align=center;verticalAlign=middle;resizable=0;points=[];fontSize=12;rounded=1;" parent="tSpMMrxzUmrOxkiWCc4J-21" vertex="1" connectable="0">
          <mxGeometry x="-0.2409" y="2" relative="1" as="geometry">
            <mxPoint as="offset" />
          </mxGeometry>
        </mxCell>
        <mxCell id="tSpMMrxzUmrOxkiWCc4J-23" value="Datele sunt valide?" style="rhombus;whiteSpace=wrap;html=1;shadow=0;fontFamily=Helvetica;fontSize=12;align=center;strokeWidth=1;spacing=6;spacingTop=-4;rounded=1;" parent="tSpMMrxzUmrOxkiWCc4J-3" vertex="1">
          <mxGeometry x="400" y="122.5" width="100" height="98" as="geometry" />
        </mxCell>
        <mxCell id="tSpMMrxzUmrOxkiWCc4J-24" value="" style="edgeStyle=none;curved=1;rounded=1;orthogonalLoop=1;jettySize=auto;html=1;fontSize=12;startSize=8;endSize=8;dashed=1;" parent="tSpMMrxzUmrOxkiWCc4J-3" source="tSpMMrxzUmrOxkiWCc4J-26" target="tSpMMrxzUmrOxkiWCc4J-13" edge="1">
          <mxGeometry relative="1" as="geometry" />
        </mxCell>
        <mxCell id="tSpMMrxzUmrOxkiWCc4J-25" value="Raspuns" style="edgeLabel;html=1;align=center;verticalAlign=middle;resizable=0;points=[];fontSize=12;rounded=1;" parent="tSpMMrxzUmrOxkiWCc4J-24" vertex="1" connectable="0">
          <mxGeometry x="0.0885" y="1" relative="1" as="geometry">
            <mxPoint as="offset" />
          </mxGeometry>
        </mxCell>
        <mxCell id="tSpMMrxzUmrOxkiWCc4J-26" value="Pregatire mesaj de EROARE" style="whiteSpace=wrap;html=1;shadow=0;strokeWidth=1;spacing=6;spacingTop=-4;rounded=1;" parent="tSpMMrxzUmrOxkiWCc4J-3" vertex="1">
          <mxGeometry x="390" y="269.5" width="120" height="49" as="geometry" />
        </mxCell>
        <mxCell id="tSpMMrxzUmrOxkiWCc4J-27" value="Eroare" style="html=1;shadow=0;dashed=0;shape=mxgraph.bootstrap.rrect;rSize=5;strokeColor=#F4C5CB;strokeWidth=1;fillColor=#F8D6DA;fontColor=#711623;whiteSpace=wrap;align=left;verticalAlign=middle;spacingLeft=10;rounded=1;" parent="tSpMMrxzUmrOxkiWCc4J-3" vertex="1">
          <mxGeometry x="30" y="294" width="170" height="49" as="geometry" />
        </mxCell>
        <mxCell id="tSpMMrxzUmrOxkiWCc4J-28" style="edgeStyle=none;curved=0;rounded=0;orthogonalLoop=1;jettySize=auto;html=1;entryX=0.998;entryY=0.446;entryDx=0;entryDy=0;entryPerimeter=0;fontSize=12;startSize=8;endSize=8;" parent="tSpMMrxzUmrOxkiWCc4J-3" target="tSpMMrxzUmrOxkiWCc4J-27" edge="1">
          <mxGeometry relative="1" as="geometry">
            <mxPoint x="260" y="293.069" as="sourcePoint" />
            <mxPoint x="195.91999999999996" y="294.93100000000055" as="targetPoint" />
            <Array as="points" />
          </mxGeometry>
        </mxCell>
        <mxCell id="XpkiJZqz_F2u8kBpc9Rh-46" style="edgeStyle=orthogonalEdgeStyle;rounded=0;orthogonalLoop=1;jettySize=auto;html=1;entryX=0.5;entryY=0;entryDx=0;entryDy=0;" edge="1" parent="tSpMMrxzUmrOxkiWCc4J-3" source="tSpMMrxzUmrOxkiWCc4J-29" target="XpkiJZqz_F2u8kBpc9Rh-45">
          <mxGeometry relative="1" as="geometry">
            <mxPoint x="115" y="460" as="targetPoint" />
          </mxGeometry>
        </mxCell>
        <mxCell id="tSpMMrxzUmrOxkiWCc4J-29" value="&lt;font style=&quot;font-size: 10px;&quot;&gt;Success&lt;/font&gt;" style="html=1;shadow=0;dashed=0;shape=mxgraph.bootstrap.rrect;rSize=5;strokeColor=#B8DCFE;strokeWidth=1;fillColor=#CCE7FE;fontColor=#004583;whiteSpace=wrap;align=left;verticalAlign=middle;spacingLeft=10;rounded=1;" parent="tSpMMrxzUmrOxkiWCc4J-3" vertex="1">
          <mxGeometry x="30" y="355.25" width="170" height="44.75" as="geometry" />
        </mxCell>
        <mxCell id="tSpMMrxzUmrOxkiWCc4J-30" style="edgeStyle=none;curved=0;rounded=0;orthogonalLoop=1;jettySize=auto;html=1;entryX=1.007;entryY=0.554;entryDx=0;entryDy=0;entryPerimeter=0;fontSize=12;startSize=8;endSize=8;" parent="tSpMMrxzUmrOxkiWCc4J-3" target="tSpMMrxzUmrOxkiWCc4J-29" edge="1">
          <mxGeometry relative="1" as="geometry">
            <mxPoint x="260" y="367.05899999999997" as="sourcePoint" />
            <mxPoint x="197.95999999999992" y="367.05899999999997" as="targetPoint" />
          </mxGeometry>
        </mxCell>
        <mxCell id="tSpMMrxzUmrOxkiWCc4J-33" value="" style="edgeStyle=none;curved=0;rounded=0;orthogonalLoop=1;jettySize=auto;html=1;fontSize=12;startSize=8;endSize=8;entryX=1;entryY=0.5;entryDx=0;entryDy=0;" parent="tSpMMrxzUmrOxkiWCc4J-3" source="tSpMMrxzUmrOxkiWCc4J-37" target="tSpMMrxzUmrOxkiWCc4J-26" edge="1">
          <mxGeometry relative="1" as="geometry">
            <mxPoint x="1150" y="379.75" as="targetPoint" />
            <Array as="points">
              <mxPoint x="1150" y="294" />
            </Array>
          </mxGeometry>
        </mxCell>
        <mxCell id="tSpMMrxzUmrOxkiWCc4J-34" value="Nu" style="edgeLabel;html=1;align=center;verticalAlign=middle;resizable=0;points=[];fontSize=12;rounded=1;" parent="tSpMMrxzUmrOxkiWCc4J-33" vertex="1" connectable="0">
          <mxGeometry x="0.1068" y="-1" relative="1" as="geometry">
            <mxPoint as="offset" />
          </mxGeometry>
        </mxCell>
        <mxCell id="tSpMMrxzUmrOxkiWCc4J-35" style="edgeStyle=none;curved=0;rounded=0;orthogonalLoop=1;jettySize=auto;html=1;fontSize=12;startSize=8;endSize=8;entryX=1;entryY=0.5;entryDx=0;entryDy=0;exitX=1;exitY=0.5;exitDx=0;exitDy=0;" parent="tSpMMrxzUmrOxkiWCc4J-3" source="tSpMMrxzUmrOxkiWCc4J-37" target="tSpMMrxzUmrOxkiWCc4J-40" edge="1">
          <mxGeometry relative="1" as="geometry">
            <Array as="points">
              <mxPoint x="1190" y="367.5" />
            </Array>
          </mxGeometry>
        </mxCell>
        <mxCell id="tSpMMrxzUmrOxkiWCc4J-36" value="Da" style="edgeLabel;html=1;align=center;verticalAlign=middle;resizable=0;points=[];fontSize=12;rounded=1;" parent="tSpMMrxzUmrOxkiWCc4J-35" vertex="1" connectable="0">
          <mxGeometry x="0.08" relative="1" as="geometry">
            <mxPoint as="offset" />
          </mxGeometry>
        </mxCell>
        <mxCell id="tSpMMrxzUmrOxkiWCc4J-37" value="Proces finalizat?" style="rhombus;whiteSpace=wrap;html=1;rounded=1;glass=0;strokeWidth=1;shadow=0;" parent="tSpMMrxzUmrOxkiWCc4J-3" vertex="1">
          <mxGeometry x="1110" y="122.5" width="80" height="98" as="geometry" />
        </mxCell>
        <mxCell id="tSpMMrxzUmrOxkiWCc4J-38" style="edgeStyle=none;curved=1;rounded=1;orthogonalLoop=1;jettySize=auto;html=1;fontSize=12;startSize=8;endSize=8;dashed=1;" parent="tSpMMrxzUmrOxkiWCc4J-3" source="tSpMMrxzUmrOxkiWCc4J-40" target="tSpMMrxzUmrOxkiWCc4J-13" edge="1">
          <mxGeometry relative="1" as="geometry" />
        </mxCell>
        <mxCell id="tSpMMrxzUmrOxkiWCc4J-39" value="Raspuns" style="edgeLabel;html=1;align=center;verticalAlign=middle;resizable=0;points=[];fontSize=12;rounded=1;" parent="tSpMMrxzUmrOxkiWCc4J-38" vertex="1" connectable="0">
          <mxGeometry x="0.0727" y="2" relative="1" as="geometry">
            <mxPoint as="offset" />
          </mxGeometry>
        </mxCell>
        <mxCell id="tSpMMrxzUmrOxkiWCc4J-40" value="Pregatire mesaj de SUCCES cu ID comanda" style="whiteSpace=wrap;html=1;shadow=0;strokeWidth=1;spacing=6;spacingTop=-4;rounded=1;" parent="tSpMMrxzUmrOxkiWCc4J-3" vertex="1">
          <mxGeometry x="390" y="343" width="120" height="49" as="geometry" />
        </mxCell>
        <mxCell id="tSpMMrxzUmrOxkiWCc4J-41" value="OrderModel" style="swimlane;fontStyle=1;align=center;verticalAlign=top;childLayout=stackLayout;horizontal=1;startSize=26;horizontalStack=0;resizeParent=1;resizeParentMax=0;resizeLast=0;collapsible=1;marginBottom=0;whiteSpace=wrap;html=1;rounded=1;sketch=1;curveFitting=1;jiggle=2;" parent="tSpMMrxzUmrOxkiWCc4J-3" vertex="1">
          <mxGeometry x="550" y="36.75" width="150" height="79.9" as="geometry">
            <mxRectangle x="550" y="420" width="100" height="30" as="alternateBounds" />
          </mxGeometry>
        </mxCell>
        <mxCell id="tSpMMrxzUmrOxkiWCc4J-42" value="+ status: pending&lt;div&gt;+ type: p&lt;span style=&quot;background-color: initial;&quot;&gt;ayedBooking&lt;/span&gt;&lt;/div&gt;" style="text;strokeColor=none;fillColor=none;align=left;verticalAlign=top;spacingLeft=4;spacingRight=4;overflow=hidden;rotatable=0;points=[[0,0.5],[1,0.5]];portConstraint=eastwest;whiteSpace=wrap;html=1;" parent="tSpMMrxzUmrOxkiWCc4J-41" vertex="1">
          <mxGeometry y="26" width="150" height="53.9" as="geometry" />
        </mxCell>
        <mxCell id="tSpMMrxzUmrOxkiWCc4J-43" value="BookingModel" style="swimlane;fontStyle=1;align=center;verticalAlign=top;childLayout=stackLayout;horizontal=1;startSize=26;horizontalStack=0;resizeParent=1;resizeParentMax=0;resizeLast=0;collapsible=1;marginBottom=0;whiteSpace=wrap;html=1;rounded=1;sketch=1;curveFitting=1;jiggle=2;" parent="tSpMMrxzUmrOxkiWCc4J-3" vertex="1">
          <mxGeometry x="720" y="49" width="170" height="57.849999999999994" as="geometry">
            <mxRectangle x="550" y="420" width="100" height="30" as="alternateBounds" />
          </mxGeometry>
        </mxCell>
        <mxCell id="tSpMMrxzUmrOxkiWCc4J-44" value="+ paymentCompleted: false" style="text;strokeColor=none;fillColor=none;align=left;verticalAlign=top;spacingLeft=4;spacingRight=4;overflow=hidden;rotatable=0;points=[[0,0.5],[1,0.5]];portConstraint=eastwest;whiteSpace=wrap;html=1;" parent="tSpMMrxzUmrOxkiWCc4J-43" vertex="1">
          <mxGeometry y="26" width="170" height="31.849999999999998" as="geometry" />
        </mxCell>
        <mxCell id="tSpMMrxzUmrOxkiWCc4J-47" value="Plateste" style="html=1;shadow=0;dashed=0;shape=mxgraph.bootstrap.rrect;rSize=5;strokeColor=none;strokeWidth=1;fillColor=#33A64C;fontColor=#FFFFFF;whiteSpace=wrap;align=center;verticalAlign=middle;spacingLeft=0;fontStyle=0;fontSize=16;spacing=5;" parent="tSpMMrxzUmrOxkiWCc4J-3" vertex="1">
          <mxGeometry x="120" y="189.875" width="90" height="49" as="geometry" />
        </mxCell>
        <mxCell id="tSpMMrxzUmrOxkiWCc4J-51" value="booking/create" style="text;strokeColor=none;fillColor=none;html=1;align=center;verticalAlign=middle;whiteSpace=wrap;rounded=0;fontSize=16;" parent="tSpMMrxzUmrOxkiWCc4J-3" vertex="1">
          <mxGeometry x="310" y="122.5" width="60" height="36.75" as="geometry" />
        </mxCell>
        <mxCell id="tSpMMrxzUmrOxkiWCc4J-98" value="&lt;font style=&quot;color: rgb(0, 69, 131); font-size: 10px;&quot;&gt;Comanda creata.&lt;/font&gt;&lt;div&gt;&lt;font color=&quot;#006633&quot; style=&quot;font-size: 10px;&quot;&gt;status: pending;&lt;/font&gt;&lt;/div&gt;&lt;div&gt;&lt;font color=&quot;#006633&quot; style=&quot;font-size: 10px;&quot;&gt;type: payedBooking;&lt;/font&gt;&lt;div style=&quot;color: rgb(0, 69, 131);&quot;&gt;&lt;font style=&quot;font-size: 10px;&quot;&gt;Rezervare creata.&lt;/font&gt;&lt;/div&gt;&lt;div style=&quot;&quot;&gt;&lt;font color=&quot;#006633&quot; style=&quot;font-size: 10px;&quot;&gt;paymentCompleted: false;&lt;/font&gt;&lt;/div&gt;&lt;/div&gt;" style="shape=note;size=20;whiteSpace=wrap;html=1;align=left;" parent="tSpMMrxzUmrOxkiWCc4J-3" vertex="1">
          <mxGeometry x="730" y="318.5" width="140" height="122.5" as="geometry" />
        </mxCell>
        <mxCell id="XpkiJZqz_F2u8kBpc9Rh-47" style="edgeStyle=orthogonalEdgeStyle;rounded=0;orthogonalLoop=1;jettySize=auto;html=1;" edge="1" parent="tSpMMrxzUmrOxkiWCc4J-3" source="XpkiJZqz_F2u8kBpc9Rh-45">
          <mxGeometry relative="1" as="geometry">
            <mxPoint x="260" y="493" as="targetPoint" />
          </mxGeometry>
        </mxCell>
        <mxCell id="XpkiJZqz_F2u8kBpc9Rh-45" value="Proces automat&lt;div&gt;&lt;br&gt;&lt;div&gt;INITIERE PLATA&lt;/div&gt;&lt;/div&gt;" style="whiteSpace=wrap;html=1;shadow=0;strokeWidth=1;spacing=6;spacingTop=-4;rounded=1;" vertex="1" parent="tSpMMrxzUmrOxkiWCc4J-3">
          <mxGeometry x="55" y="465.5" width="120" height="49" as="geometry" />
        </mxCell>
        <mxCell id="XpkiJZqz_F2u8kBpc9Rh-51" style="edgeStyle=orthogonalEdgeStyle;rounded=0;orthogonalLoop=1;jettySize=auto;html=1;entryX=0;entryY=0.5;entryDx=0;entryDy=0;" edge="1" parent="tSpMMrxzUmrOxkiWCc4J-3" source="XpkiJZqz_F2u8kBpc9Rh-50" target="XpkiJZqz_F2u8kBpc9Rh-168">
          <mxGeometry relative="1" as="geometry">
            <mxPoint x="550" y="490" as="targetPoint" />
          </mxGeometry>
        </mxCell>
        <mxCell id="XpkiJZqz_F2u8kBpc9Rh-170" value="Da" style="edgeLabel;html=1;align=center;verticalAlign=middle;resizable=0;points=[];" vertex="1" connectable="0" parent="XpkiJZqz_F2u8kBpc9Rh-51">
          <mxGeometry x="-0.1143" y="-1" relative="1" as="geometry">
            <mxPoint as="offset" />
          </mxGeometry>
        </mxCell>
        <mxCell id="XpkiJZqz_F2u8kBpc9Rh-109" style="edgeStyle=orthogonalEdgeStyle;rounded=0;orthogonalLoop=1;jettySize=auto;html=1;entryX=0.5;entryY=0;entryDx=0;entryDy=0;" edge="1" parent="tSpMMrxzUmrOxkiWCc4J-3" source="XpkiJZqz_F2u8kBpc9Rh-50" target="XpkiJZqz_F2u8kBpc9Rh-108">
          <mxGeometry relative="1" as="geometry" />
        </mxCell>
        <mxCell id="XpkiJZqz_F2u8kBpc9Rh-169" value="Nu" style="edgeLabel;html=1;align=center;verticalAlign=middle;resizable=0;points=[];" vertex="1" connectable="0" parent="XpkiJZqz_F2u8kBpc9Rh-109">
          <mxGeometry x="-0.0732" y="1" relative="1" as="geometry">
            <mxPoint as="offset" />
          </mxGeometry>
        </mxCell>
        <mxCell id="XpkiJZqz_F2u8kBpc9Rh-50" value="ID Comanda existent?" style="rhombus;whiteSpace=wrap;html=1;shadow=0;fontFamily=Helvetica;fontSize=12;align=center;strokeWidth=1;spacing=6;spacingTop=-4;rounded=1;" vertex="1" parent="tSpMMrxzUmrOxkiWCc4J-3">
          <mxGeometry x="390" y="441" width="100" height="98" as="geometry" />
        </mxCell>
        <mxCell id="XpkiJZqz_F2u8kBpc9Rh-110" style="edgeStyle=orthogonalEdgeStyle;rounded=0;orthogonalLoop=1;jettySize=auto;html=1;dashed=1;" edge="1" parent="tSpMMrxzUmrOxkiWCc4J-3" source="XpkiJZqz_F2u8kBpc9Rh-108">
          <mxGeometry relative="1" as="geometry">
            <mxPoint x="280" y="604.5" as="targetPoint" />
          </mxGeometry>
        </mxCell>
        <mxCell id="XpkiJZqz_F2u8kBpc9Rh-111" value="Raspuns" style="edgeLabel;html=1;align=center;verticalAlign=middle;resizable=0;points=[];" vertex="1" connectable="0" parent="XpkiJZqz_F2u8kBpc9Rh-110">
          <mxGeometry x="0.3631" y="-1" relative="1" as="geometry">
            <mxPoint x="18" y="1" as="offset" />
          </mxGeometry>
        </mxCell>
        <mxCell id="XpkiJZqz_F2u8kBpc9Rh-108" value="Pregatire mesaj de EROARE" style="whiteSpace=wrap;html=1;shadow=0;strokeWidth=1;spacing=6;spacingTop=-4;rounded=1;" vertex="1" parent="tSpMMrxzUmrOxkiWCc4J-3">
          <mxGeometry x="380" y="580" width="120" height="49" as="geometry" />
        </mxCell>
        <mxCell id="XpkiJZqz_F2u8kBpc9Rh-172" style="edgeStyle=orthogonalEdgeStyle;rounded=0;orthogonalLoop=1;jettySize=auto;html=1;" edge="1" parent="tSpMMrxzUmrOxkiWCc4J-3" source="XpkiJZqz_F2u8kBpc9Rh-168" target="XpkiJZqz_F2u8kBpc9Rh-171">
          <mxGeometry relative="1" as="geometry">
            <mxPoint x="730" y="490" as="targetPoint" />
            <Array as="points">
              <mxPoint x="730" y="490" />
              <mxPoint x="730" y="490" />
            </Array>
          </mxGeometry>
        </mxCell>
        <mxCell id="XpkiJZqz_F2u8kBpc9Rh-173" value="Cerere" style="edgeLabel;html=1;align=center;verticalAlign=middle;resizable=0;points=[];" vertex="1" connectable="0" parent="XpkiJZqz_F2u8kBpc9Rh-172">
          <mxGeometry x="-0.065" relative="1" as="geometry">
            <mxPoint as="offset" />
          </mxGeometry>
        </mxCell>
        <mxCell id="XpkiJZqz_F2u8kBpc9Rh-168" value="Pregatire comanda Netopia&lt;div&gt;Cerere initiere plata&lt;/div&gt;" style="whiteSpace=wrap;html=1;shadow=0;strokeWidth=1;spacing=6;spacingTop=-4;rounded=1;" vertex="1" parent="tSpMMrxzUmrOxkiWCc4J-3">
          <mxGeometry x="610" y="465.5" width="120" height="49" as="geometry" />
        </mxCell>
        <mxCell id="XpkiJZqz_F2u8kBpc9Rh-171" value="API Netopia" style="html=1;points=[[0,0,0,0,5],[0,1,0,0,-5],[1,0,0,0,5],[1,1,0,0,-5]];perimeter=orthogonalPerimeter;outlineConnect=0;targetShapes=umlLifeline;portConstraint=eastwest;newEdgeStyle={&quot;curved&quot;:0,&quot;rounded&quot;:0};rounded=1;flipV=0;direction=west;horizontal=0;" vertex="1" parent="tSpMMrxzUmrOxkiWCc4J-3">
          <mxGeometry x="890" y="460" width="20" height="210" as="geometry" />
        </mxCell>
        <mxCell id="XpkiJZqz_F2u8kBpc9Rh-174" value="&lt;div style=&quot;text-align: left; font-size: 10px;&quot;&gt;Netopia primeste comanda si:&lt;/div&gt;&lt;div style=&quot;text-align: left; font-size: 10px;&quot;&gt;&amp;nbsp;&lt;/div&gt;&lt;div style=&quot;text-align: left; font-size: 10px;&quot;&gt;SUCCESS: Raspunde cu un link de plata&lt;/div&gt;&lt;div style=&quot;text-align: left; font-size: 10px;&quot;&gt;EROARE: Raspunde cu eroare&amp;nbsp;&lt;/div&gt;&lt;div style=&quot;text-align: left; font-size: 10px;&quot;&gt;&lt;br&gt;&lt;/div&gt;" style="shape=note;size=20;whiteSpace=wrap;html=1;" vertex="1" parent="tSpMMrxzUmrOxkiWCc4J-3">
          <mxGeometry x="920" y="506.5" width="200" height="122.5" as="geometry" />
        </mxCell>
        <mxCell id="XpkiJZqz_F2u8kBpc9Rh-180" style="edgeStyle=orthogonalEdgeStyle;rounded=0;orthogonalLoop=1;jettySize=auto;html=1;" edge="1" parent="tSpMMrxzUmrOxkiWCc4J-3" source="XpkiJZqz_F2u8kBpc9Rh-178">
          <mxGeometry relative="1" as="geometry">
            <mxPoint x="500" y="604.5" as="targetPoint" />
          </mxGeometry>
        </mxCell>
        <mxCell id="XpkiJZqz_F2u8kBpc9Rh-181" value="Nu" style="edgeLabel;html=1;align=center;verticalAlign=middle;resizable=0;points=[];" vertex="1" connectable="0" parent="XpkiJZqz_F2u8kBpc9Rh-180">
          <mxGeometry x="-0.3075" y="1" relative="1" as="geometry">
            <mxPoint as="offset" />
          </mxGeometry>
        </mxCell>
        <mxCell id="XpkiJZqz_F2u8kBpc9Rh-178" value="Succes?" style="rhombus;whiteSpace=wrap;html=1;rounded=1;" vertex="1" parent="tSpMMrxzUmrOxkiWCc4J-3">
          <mxGeometry x="710" y="564.5" width="80" height="80" as="geometry" />
        </mxCell>
        <mxCell id="XpkiJZqz_F2u8kBpc9Rh-179" value="" style="rounded=0;orthogonalLoop=1;jettySize=auto;html=1;entryX=0.955;entryY=0.504;entryDx=0;entryDy=0;entryPerimeter=0;dashed=1;" edge="1" parent="tSpMMrxzUmrOxkiWCc4J-3" target="XpkiJZqz_F2u8kBpc9Rh-178">
          <mxGeometry relative="1" as="geometry">
            <mxPoint x="890" y="604.3834627831715" as="sourcePoint" />
            <mxPoint x="814.7734627831715" y="604.3834627831715" as="targetPoint" />
          </mxGeometry>
        </mxCell>
        <mxCell id="XpkiJZqz_F2u8kBpc9Rh-182" value="Raspuns" style="edgeLabel;html=1;align=center;verticalAlign=middle;resizable=0;points=[];" vertex="1" connectable="0" parent="XpkiJZqz_F2u8kBpc9Rh-179">
          <mxGeometry x="0.0015" y="1" relative="1" as="geometry">
            <mxPoint as="offset" />
          </mxGeometry>
        </mxCell>
        <mxCell id="XpkiJZqz_F2u8kBpc9Rh-192" style="edgeStyle=orthogonalEdgeStyle;rounded=0;orthogonalLoop=1;jettySize=auto;html=1;entryX=1;entryY=0.5;entryDx=0;entryDy=0;" edge="1" parent="tSpMMrxzUmrOxkiWCc4J-3" source="XpkiJZqz_F2u8kBpc9Rh-183" target="XpkiJZqz_F2u8kBpc9Rh-189">
          <mxGeometry relative="1" as="geometry" />
        </mxCell>
        <mxCell id="XpkiJZqz_F2u8kBpc9Rh-183" value="Schimbare status comanda" style="whiteSpace=wrap;html=1;rounded=1;" vertex="1" parent="tSpMMrxzUmrOxkiWCc4J-3">
          <mxGeometry x="690" y="700" width="120" height="60" as="geometry" />
        </mxCell>
        <mxCell id="XpkiJZqz_F2u8kBpc9Rh-184" value="" style="edgeStyle=orthogonalEdgeStyle;rounded=0;orthogonalLoop=1;jettySize=auto;html=1;" edge="1" parent="tSpMMrxzUmrOxkiWCc4J-3" source="XpkiJZqz_F2u8kBpc9Rh-178" target="XpkiJZqz_F2u8kBpc9Rh-183">
          <mxGeometry relative="1" as="geometry" />
        </mxCell>
        <mxCell id="XpkiJZqz_F2u8kBpc9Rh-185" value="Da" style="edgeLabel;html=1;align=center;verticalAlign=middle;resizable=0;points=[];" vertex="1" connectable="0" parent="XpkiJZqz_F2u8kBpc9Rh-184">
          <mxGeometry x="-0.2046" y="-1" relative="1" as="geometry">
            <mxPoint as="offset" />
          </mxGeometry>
        </mxCell>
        <mxCell id="XpkiJZqz_F2u8kBpc9Rh-193" style="rounded=0;orthogonalLoop=1;jettySize=auto;html=1;dashed=1;" edge="1" parent="tSpMMrxzUmrOxkiWCc4J-3" source="XpkiJZqz_F2u8kBpc9Rh-189" target="tSpMMrxzUmrOxkiWCc4J-13">
          <mxGeometry relative="1" as="geometry" />
        </mxCell>
        <mxCell id="XpkiJZqz_F2u8kBpc9Rh-194" value="Raspuns" style="edgeLabel;html=1;align=center;verticalAlign=middle;resizable=0;points=[];" vertex="1" connectable="0" parent="XpkiJZqz_F2u8kBpc9Rh-193">
          <mxGeometry x="-0.0145" relative="1" as="geometry">
            <mxPoint as="offset" />
          </mxGeometry>
        </mxCell>
        <mxCell id="XpkiJZqz_F2u8kBpc9Rh-189" value="Proces automat&lt;div&gt;la 5min - Atentionare&lt;/div&gt;&lt;div&gt;la 15min - Anulare&lt;/div&gt;" style="whiteSpace=wrap;html=1;rounded=1;" vertex="1" parent="tSpMMrxzUmrOxkiWCc4J-3">
          <mxGeometry x="480" y="700" width="120" height="60" as="geometry" />
        </mxCell>
        <mxCell id="XpkiJZqz_F2u8kBpc9Rh-186" value="&lt;div&gt;Conditie stricta:&lt;/div&gt;OrderModel&lt;div&gt;status = initiated si&lt;/div&gt;&lt;div&gt;type = payedBooking&lt;/div&gt;" style="shape=note;size=20;whiteSpace=wrap;html=1;" vertex="1" parent="tSpMMrxzUmrOxkiWCc4J-3">
          <mxGeometry x="480" y="770" width="130" height="70" as="geometry" />
        </mxCell>
        <mxCell id="XpkiJZqz_F2u8kBpc9Rh-271" value="Eroare" style="html=1;shadow=0;dashed=0;shape=mxgraph.bootstrap.rrect;rSize=5;strokeColor=#F4C5CB;strokeWidth=1;fillColor=#F8D6DA;fontColor=#711623;whiteSpace=wrap;align=left;verticalAlign=middle;spacingLeft=10;rounded=1;" vertex="1" parent="tSpMMrxzUmrOxkiWCc4J-3">
          <mxGeometry x="20" y="580" width="170" height="49" as="geometry" />
        </mxCell>
        <mxCell id="XpkiJZqz_F2u8kBpc9Rh-272" style="rounded=0;orthogonalLoop=1;jettySize=auto;html=1;entryX=0.997;entryY=0.498;entryDx=0;entryDy=0;entryPerimeter=0;" edge="1" parent="tSpMMrxzUmrOxkiWCc4J-3" source="tSpMMrxzUmrOxkiWCc4J-13" target="XpkiJZqz_F2u8kBpc9Rh-271">
          <mxGeometry relative="1" as="geometry">
            <mxPoint x="190.67999999999995" y="614.4870000000001" as="targetPoint" />
            <mxPoint x="260" y="609.3499999999999" as="sourcePoint" />
          </mxGeometry>
        </mxCell>
        <mxCell id="XpkiJZqz_F2u8kBpc9Rh-273" value="&lt;font style=&quot;font-size: 10px;&quot;&gt;Succes: Trimitere catre pagina NETOPIA. Continuare in Fig. 3&lt;/font&gt;" style="html=1;shadow=0;dashed=0;shape=mxgraph.bootstrap.rrect;rSize=5;strokeColor=#B8DCFE;strokeWidth=1;fillColor=#CCE7FE;fontColor=#004583;whiteSpace=wrap;align=left;verticalAlign=middle;spacingLeft=10;rounded=1;" vertex="1" parent="tSpMMrxzUmrOxkiWCc4J-3">
          <mxGeometry x="20" y="707.6200000000001" width="170" height="44.75" as="geometry" />
        </mxCell>
        <mxCell id="4ncP-Ni7GxkVVqy7-JuS-9" value="&lt;div&gt;&lt;span style=&quot;color: rgb(108, 118, 125); font-size: 14px;&quot;&gt;Fig. 1&lt;/span&gt;&lt;/div&gt;&lt;span style=&quot;color: rgb(108, 118, 125); font-size: 14px;&quot;&gt;Descriere proces de rezervare blilet &lt;/span&gt;&lt;span style=&quot;font-size: 14px;&quot;&gt;&lt;font color=&quot;#00cc66&quot;&gt;ONLINE&lt;/font&gt;&lt;/span&gt;" style="shape=umlFrame;whiteSpace=wrap;html=1;pointerEvents=0;rounded=1;width=180;height=55;align=left;" parent="WIyWlLk6GJQsqaUBKTNV-1" vertex="1">
          <mxGeometry x="10" y="390" width="1260" height="400" as="geometry" />
        </mxCell>
        <mxCell id="XpkiJZqz_F2u8kBpc9Rh-190" value="OrderModel" style="swimlane;fontStyle=1;align=center;verticalAlign=top;childLayout=stackLayout;horizontal=1;startSize=26;horizontalStack=0;resizeParent=1;resizeParentMax=0;resizeLast=0;collapsible=1;marginBottom=0;whiteSpace=wrap;html=1;rounded=1;sketch=1;curveFitting=1;jiggle=2;" vertex="1" parent="WIyWlLk6GJQsqaUBKTNV-1">
          <mxGeometry x="840" y="1540" width="150" height="70" as="geometry">
            <mxRectangle x="550" y="420" width="100" height="30" as="alternateBounds" />
          </mxGeometry>
        </mxCell>
        <mxCell id="XpkiJZqz_F2u8kBpc9Rh-191" value="+ status: initiated&lt;div&gt;+ type: p&lt;span style=&quot;background-color: initial;&quot;&gt;ayedBooking&lt;/span&gt;&lt;/div&gt;" style="text;strokeColor=none;fillColor=none;align=left;verticalAlign=top;spacingLeft=4;spacingRight=4;overflow=hidden;rotatable=0;points=[[0,0.5],[1,0.5]];portConstraint=eastwest;whiteSpace=wrap;html=1;" vertex="1" parent="XpkiJZqz_F2u8kBpc9Rh-190">
          <mxGeometry y="26" width="150" height="44" as="geometry" />
        </mxCell>
        <mxCell id="XpkiJZqz_F2u8kBpc9Rh-275" value="&lt;span style=&quot;color: rgb(108, 118, 125); font-size: 14px;&quot;&gt;&lt;b&gt;Fig. 3&lt;/b&gt;&lt;/span&gt;&lt;div&gt;&lt;span style=&quot;color: rgb(108, 118, 125); font-size: 14px;&quot;&gt;Confirmare comanda de catre&amp;nbsp;&lt;/span&gt;&lt;span style=&quot;font-size: 14px;&quot;&gt;&lt;font color=&quot;#00cc66&quot;&gt;NETOPIA&lt;/font&gt;&lt;/span&gt;&lt;/div&gt;" style="shape=umlFrame;whiteSpace=wrap;html=1;pointerEvents=0;rounded=1;width=180;height=55;align=left;" vertex="1" parent="WIyWlLk6GJQsqaUBKTNV-1">
          <mxGeometry x="1390" y="390" width="1260" height="400" as="geometry" />
        </mxCell>
      </root>
    </mxGraphModel>
  </diagram>
</mxfile>
